<svg width="25" height="25" viewBox="0 0 25 25" fill="none" xmlns="http://www.w3.org/2000/svg">
<path d="M9.01931 19.791C16.0925 19.791 19.9645 13.7846 19.9645 8.57973C19.9645 8.41318 19.9645 8.24663 19.9543 8.06966C20.7062 7.51794 21.3567 6.82049 21.875 6.02936C21.184 6.34165 20.4421 6.54984 19.6596 6.65394C20.4522 6.16468 21.062 5.39436 21.3567 4.4679C20.6148 4.92592 19.7917 5.24863 18.9075 5.42559C18.2062 4.64486 17.2104 4.16602 16.1026 4.16602C13.9786 4.16602 12.251 5.93567 12.251 8.1113C12.251 8.4236 12.2917 8.71507 12.3526 9.00654C9.16158 8.85039 6.32622 7.26811 4.42581 4.88429C4.09045 5.47764 3.90752 6.15428 3.90752 6.87255C3.90752 8.23621 4.58842 9.44375 5.61483 10.1516C4.98476 10.1308 4.39532 9.95383 3.87703 9.66235C3.87703 9.67277 3.87703 9.69358 3.87703 9.7144C3.87703 11.6193 5.20833 13.2225 6.9563 13.5764C6.63109 13.6701 6.29573 13.7117 5.94004 13.7117C5.69614 13.7117 5.45224 13.6909 5.2185 13.6388C5.7063 15.2107 7.12906 16.3454 8.81605 16.3766C7.49492 17.4384 5.83842 18.063 4.03964 18.063C3.73476 18.063 3.41972 18.0526 3.125 18.0109C4.82216 19.1352 6.84451 19.791 9.01931 19.791Z" fill="#8F8F8F"/>
</svg>
