<svg width="25" height="25" viewBox="0 0 25 25" fill="none" xmlns="http://www.w3.org/2000/svg">
<path d="M5.34844 8.18413C5.37188 7.95833 5.28359 7.7356 5.11172 7.58405L3.36172 5.51744V5.20898H8.79766L12.9992 14.237L16.693 5.20898H21.875V5.51744L20.3781 6.92349C20.2492 7.01994 20.1852 7.17838 20.2117 7.33529V17.6668C20.1852 17.8229 20.2492 17.9814 20.3781 18.0778L21.8398 19.4839V19.7923H14.4868V19.4839L16.0016 18.0434C16.15 17.8979 16.15 17.855 16.15 17.6323V9.28172L11.9398 19.7587H11.3711L6.46875 9.28172V16.3036C6.42812 16.5983 6.52813 16.896 6.73984 17.1088L8.70937 19.4494V19.7587H3.125V19.4494L5.09453 17.1088C5.30547 16.8952 5.39922 16.596 5.34844 16.3036V8.18413Z" fill="#8F8F8F"/>
</svg>
