<svg width="25" height="25" viewBox="0 0 25 25" fill="none" xmlns="http://www.w3.org/2000/svg">
<path d="M21.8565 5.28124C21.7454 6.90798 18.7649 19.0617 18.7649 19.0617C18.7649 19.0617 18.5798 19.7723 17.9319 19.791C17.7097 19.791 17.4135 19.7723 17.0803 19.4545C16.3953 18.8748 14.8403 17.7529 13.3778 16.7246C13.3223 16.7806 13.2668 16.8367 13.1927 16.8928C12.8595 17.192 12.3597 17.6221 11.8228 18.1456C11.6192 18.3326 11.397 18.5382 11.1749 18.7626L11.1564 18.7813C11.0268 18.9122 10.9157 19.0057 10.8231 19.0805C10.1011 19.6788 10.0271 19.1739 10.0271 18.9122L10.4159 14.6303V14.5929L10.4344 14.5555C10.4529 14.4995 10.4899 14.4807 10.4899 14.4807C10.4899 14.4807 18.0615 7.67461 18.2651 6.94538C18.2836 6.90798 18.228 6.87059 18.1355 6.90798C17.6356 7.07628 8.91634 12.6483 7.9537 13.2654C7.89817 13.3028 7.73155 13.284 7.73155 13.284L3.49223 11.8817C3.49223 11.8817 2.9924 11.676 3.159 11.2085C3.19603 11.1151 3.25156 11.0215 3.4552 10.8907C4.39933 10.2176 20.8198 4.25285 20.8198 4.25285C20.8198 4.25285 21.2826 4.10327 21.5603 4.19675C21.6899 4.25285 21.764 4.30894 21.838 4.49592C21.8565 4.57071 21.875 4.72031 21.875 4.88859C21.875 4.98208 21.8565 5.09427 21.8565 5.28124Z" fill="#8F8F8F"/>
</svg>
