<svg width="25" height="25" viewBox="0 0 25 25" fill="none" xmlns="http://www.w3.org/2000/svg">
<path fill-rule="evenodd" clip-rule="evenodd" d="M20.6521 5.57249C21.5444 5.81554 22.248 6.52735 22.4883 7.43014C22.9345 9.07945 22.9173 12.5169 22.9173 12.5169C22.9173 12.5169 22.9173 15.9371 22.4883 17.5864C22.248 18.4892 21.5444 19.201 20.6521 19.4441C19.0218 19.8781 12.5007 19.8781 12.5007 19.8781C12.5007 19.8781 5.99667 19.8781 4.34922 19.4267C3.45686 19.1837 2.75326 18.4718 2.51301 17.5691C2.08398 15.9371 2.08398 12.4996 2.08398 12.4996C2.08398 12.4996 2.08398 9.07945 2.51301 7.43014C2.75326 6.52735 3.47402 5.79819 4.34922 5.55512C5.97951 5.12109 12.5007 5.12109 12.5007 5.12109C12.5007 5.12109 19.0218 5.12109 20.6521 5.57249ZM10.4241 9.33986L15.8469 12.4996L10.4241 15.6593V9.33986Z" fill="#8F8F8F"/>
</svg>
